# xmcd CD database file
#
# Track frame offsets:
#	150
#	21207
#	43715
#	66027
#	87002
#	106190
#	120610
#	140752
#	162230
#	180120
#	203590
#	226687
#	248955
#	265615
#
# Disc length: 3893 seconds
#
# Revision: 33
# Processed by: cddbd v1.5.2PL0 Copyright (c) Steve Scherf et al.
# Submitted via: CDex 1.70beta3
#
DISCID=aa0f330e
DTITLE=Southern All Stars - BALLAD3 - THE ALBUM OF LOVE - DISC2
DYEAR=2000
DGENRE=Jazz+Funk
TTITLE0=真夏の果実
TTITLE1=トラック 2
TTITLE2=トラック 3
TTITLE3=トラック 4
TTITLE4=トラック 5
TTITLE5=トラック 6
TTITLE6=トラック 7
TTITLE7=トラック 8
TTITLE8=トラック 9
TTITLE9=トラック 10
TTITLE10=トラック 11
TTITLE11=トラック 12
TTITLE12=トラック 13
TTITLE13=トラック 14
EXTD=DISK1\t YEAR: 2000
EXTT0=
EXTT1=
EXTT2=
EXTT3=
EXTT4=
EXTT5=
EXTT6=
EXTT7=
EXTT8=
EXTT9=
EXTT10=
EXTT11=
EXTT12=
EXTT13=
PLAYORDER=
